<?xml version="1.0" encoding="UTF-8" standalone="no"?>
<svg
   xmlns:osb="http://www.openswatchbook.org/uri/2009/osb"
   xmlns:dc="http://purl.org/dc/elements/1.1/"
   xmlns:cc="http://creativecommons.org/ns#"
   xmlns:rdf="http://www.w3.org/1999/02/22-rdf-syntax-ns#"
   xmlns:svg="http://www.w3.org/2000/svg"
   xmlns="http://www.w3.org/2000/svg"
   xmlns:xlink="http://www.w3.org/1999/xlink"
   xmlns:sodipodi="http://sodipodi.sourceforge.net/DTD/sodipodi-0.dtd"
   xmlns:inkscape="http://www.inkscape.org/namespaces/inkscape"
   inkscape:version="1.0 (4035a4fb49, 2020-05-01)"
   sodipodi:docname="CM_Single_Blue.svg"
   width="89.404747mm"
   height="62.614677mm"
   viewBox="0 0 89.404747 62.614676"
   version="1.1"
   id="svg512">
  <sodipodi:namedview
     inkscape:current-layer="layer1"
     inkscape:window-maximized="1"
     inkscape:window-y="-11"
     inkscape:window-x="-11"
     inkscape:cy="240.44987"
     inkscape:cx="27.046806"
     inkscape:zoom="1.311704"
     showgrid="false"
     id="namedview54"
     inkscape:window-height="1046"
     inkscape:window-width="1820"
     inkscape:pageshadow="2"
     inkscape:pageopacity="0"
     guidetolerance="10"
     gridtolerance="10"
     objecttolerance="10"
     borderopacity="1"
     bordercolor="#666666"
     pagecolor="#ffffff" />
  <defs
     id="defs506">
    <linearGradient
       id="linearGradient1459"
       osb:paint="solid">
      <stop
         style="stop-color:#423f3f;stop-opacity:1;"
         offset="0"
         id="stop1457" />
    </linearGradient>
    <linearGradient
       y2="116.89051"
       x2="170.98569"
       y1="116.89051"
       x1="47.865105"
       gradientTransform="matrix(0.50058891,0,0,0.50058891,-174.39278,-5.2698937)"
       gradientUnits="userSpaceOnUse"
       id="linearGradient407"
       xlink:href="#blushirt" />
    <linearGradient
       osb:paint="solid"
       id="blushirt">
      <stop
         id="stop1573"
         offset="0"
         style="stop-color:#000c60;stop-opacity:1;" />
    </linearGradient>
    <linearGradient
       y2="145.47797"
       x2="76.030731"
       y1="145.47797"
       x1="59.581047"
       gradientTransform="matrix(0.50058891,0,0,0.50058891,-174.39278,-5.2698937)"
       gradientUnits="userSpaceOnUse"
       id="linearGradient405"
       xlink:href="#redhead" />
    <linearGradient
       osb:paint="solid"
       id="redhead">
      <stop
         id="stop1056"
         offset="0"
         style="stop-color:#4b5959;stop-opacity:1;" />
    </linearGradient>
    <linearGradient
       y2="145.13382"
       x2="147.32561"
       y1="145.13382"
       x1="127.68367"
       gradientTransform="matrix(0.50058891,0,0,0.50058891,-174.39278,-4.9023981)"
       gradientUnits="userSpaceOnUse"
       id="linearGradient403"
       xlink:href="#redhead" />
    <linearGradient
       y2="139.58394"
       x2="66.19873"
       y1="139.58394"
       x1="41.344994"
       gradientTransform="matrix(0.50058891,0,0,0.50058891,-174.39278,-5.2698937)"
       gradientUnits="userSpaceOnUse"
       id="linearGradient401"
       xlink:href="#bluhi" />
    <linearGradient
       id="bluhi"
       osb:paint="solid">
      <stop
         style="stop-color:#1400a5;stop-opacity:1;"
         offset="0"
         id="stop1830" />
    </linearGradient>
    <linearGradient
       y2="141.15039"
       x2="171.29178"
       y1="141.15039"
       x1="140.97556"
       gradientTransform="matrix(0.50058891,0,0,0.50058891,-174.39278,-4.9023981)"
       gradientUnits="userSpaceOnUse"
       id="linearGradient399"
       xlink:href="#bluhi" />
    <linearGradient
       y2="89.143013"
       x2="125.75958"
       y1="89.143013"
       x1="85.254257"
       gradientTransform="matrix(0.50058891,0,0,0.50058891,-174.39278,-5.2698937)"
       gradientUnits="userSpaceOnUse"
       id="linearGradient397"
       xlink:href="#linearGradient1838" />
    <linearGradient
       id="linearGradient1838"
       osb:paint="solid">
      <stop
         style="stop-color:#00062b;stop-opacity:1;"
         offset="0"
         id="stop1836" />
    </linearGradient>
    <linearGradient
       y2="330.05841"
       x2="446.32227"
       y1="330.05841"
       x1="348.46484"
       gradientTransform="matrix(0.13244748,0,0,0.13244748,-174.39278,-5.2698937)"
       gradientUnits="userSpaceOnUse"
       id="linearGradient395"
       xlink:href="#redhead" />
    <linearGradient
       y2="71.209579"
       x2="125.7376"
       y1="71.209579"
       x1="85.138405"
       gradientTransform="matrix(0.50058891,0,0,0.50058891,-174.39278,-5.2698937)"
       gradientUnits="userSpaceOnUse"
       id="linearGradient393"
       xlink:href="#bluhi" />
    <linearGradient
       y2="73.084755"
       x2="107.16312"
       y1="73.084755"
       x1="93.068733"
       gradientTransform="matrix(0.50058891,0,0,0.50058891,-173.71566,-6.0598737)"
       gradientUnits="userSpaceOnUse"
       id="linearGradient391"
       xlink:href="#blushirt" />
    <rect
       x="-0.66541219"
       y="149.42528"
       width="207.33685"
       height="25.636185"
       id="rect367" />
    <rect
       x="-0.66541219"
       y="149.42528"
       width="207.33685"
       height="25.636185"
       id="rect485" />
    <linearGradient
       xlink:href="#linearGradient1459"
       id="linearGradient1461"
       x1="-147.50009"
       y1="67.477486"
       x2="-139.26556"
       y2="67.477486"
       gradientUnits="userSpaceOnUse"
       gradientTransform="matrix(-1,0,0,1,-286.76565,0)" />
    <linearGradient
       xlink:href="#linearGradient1459"
       id="linearGradient1465"
       gradientUnits="userSpaceOnUse"
       gradientTransform="translate(43.096757,0.3674956)"
       x1="-147.50009"
       y1="67.477486"
       x2="-139.26556"
       y2="67.477486" />
  </defs>
  <metadata
     id="metadata509">
    <rdf:RDF>
      <cc:Work
         rdf:about="">
        <dc:format>image/svg+xml</dc:format>
        <dc:type
           rdf:resource="http://purl.org/dc/dcmitype/StillImage" />
        <dc:title />
      </cc:Work>
    </rdf:RDF>
  </metadata>
  <g
     id="layer1"
     transform="translate(-58.863105,-66.523806)">
    <path
       id="rect627"
       style="fill:#ffffff;fill-opacity:1;stroke-width:0.0418271;stroke-linecap:round;stroke-linejoin:round"
       d="m 58.863108,66.523806 89.404742,5e-6 V 128.76052 H 58.863108 Z" />
    <g
       id="g625"
       transform="translate(224.51786,46.869048)">
      <path
         id="path287"
         d="m -150.43204,60.41862 c 1.15892,-2.743549 2.31783,-3.405777 2.31783,-3.405777 0.7805,-2.648961 1.89017,-2.586763 1.89017,-2.586763 0,0 0.16556,-0.56764 0.42573,-1.300829 0.26016,-0.73319 0.9224,-1.040659 0.9224,-1.040659 0.16556,-1.91575 5.22694,-6.858891 5.22694,-6.858891 0,0 2.19958,-3.66595 4.3282,-3.42944 2.12862,0.23652 4.77757,-0.80414 4.77757,-0.80414 l 19.70171,-0.47165 c 0,0 1.46624,0.87372 3.21644,1.13389 1.75019,0.26016 3.92612,1.8448 3.92612,1.8448 0,0 0.26016,0.0709 0.23651,0.75685 0,0 0.66224,0.30746 0.80414,1.017 0,0 2.767211,2.22322 3.098332,3.760559 0,0 2.672609,2.329312 2.767208,4.103161 0,0 1.387513,0.729509 1.454412,1.766401 0,0 2.776189,2.60895 3.32808,5.10082 0,0 3.110619,2.541388 3.244419,5.601887 0,0 -1.873091,-3.328088 -5.033931,-3.612388 -3.160839,-0.284311 -5.16772,2.475148 -5.16772,2.475148 l -2.20153,0.85177 c 0,0 -1.18343,-4.027618 -2.5552,-4.500649 -1.37178,-0.473019 -2.11921,-1.725488 -2.11921,-1.725488 l -0.89875,-0.0473 c 0,0 -0.83502,2.86839 -0.12547,4.382082 0.70954,1.513689 1.44216,2.538921 1.44216,2.538921 l -32.82806,-5.960144 c 0,0 -0.6129,2.45188 -1.66651,3.10411 0,0 0.2843,1.62224 -0.30104,2.174132 -0.58534,0.551889 -1.80619,-0.518441 -1.80619,-0.518441 l -1.1438,-1.368901 c -2.93277,-4.94312 -7.26096,-2.980071 -7.26096,-2.980071 z"
         style="display:inline;opacity:0.999;fill:url(#linearGradient407);fill-opacity:1;stroke:none;stroke-width:0.132447px;stroke-linecap:butt;stroke-linejoin:miter;stroke-opacity:1" />
      <path
         style="display:inline;opacity:1;fill:url(#linearGradient1461);fill-opacity:1;stroke:none;stroke-width:0.132447px;stroke-linecap:butt;stroke-linejoin:miter;stroke-opacity:1"
         d="m -139.26556,69.392411 c -3.24963,0.14561 -6.54827,0.66916 -9.73832,0.1101 0,0 2.45759,-5.911819 4.86863,-5.12761 1.48809,-0.04967 6.39668,1.965749 4.86969,5.01751 z"
         id="path1453" />
      <path
         id="path1463"
         d="m -104.40333,69.759907 c 2.0133,-0.06687 5.297056,0.346654 6.879279,-0.04626 2.293431,-0.569528 2.441454,-0.03737 2.725418,-0.378177 0,0 -3.032665,-4.90481 -5.443717,-4.120601 -1.48809,-0.04967 -5.68797,1.493279 -4.16098,4.54504 z"
         style="display:inline;opacity:1;fill:url(#linearGradient1465);fill-opacity:1;stroke:none;stroke-width:0.132447px;stroke-linecap:butt;stroke-linejoin:miter;stroke-opacity:1" />
      <path
         id="path289"
         d="m -140.31169,65.916842 c 0,0 -3.46355,0.366804 -4.3223,3.953702 l 7.04363,-0.364804 1.25772,-3.437102 c 0,0 -1.56801,-0.936059 -3.97905,-0.15185 z"
         style="display:inline;opacity:1;fill:url(#linearGradient405);fill-opacity:1;stroke:none;stroke-width:0.132447px;stroke-linecap:butt;stroke-linejoin:miter;stroke-opacity:1" />
      <path
         id="path291"
         d="m -103.43529,69.919808 2.31961,-0.766354 c 0,0 -1.70593,-2.891376 -3.00786,-2.854707 -1.30194,0.0367 -6.35221,-0.718601 -6.35221,-0.718601 l 2.12185,4.241531 z"
         style="display:inline;opacity:1;fill:url(#linearGradient403);fill-opacity:1;stroke:none;stroke-width:0.132447px;stroke-linecap:butt;stroke-linejoin:miter;stroke-opacity:1" />
      <path
         id="path293"
         d="m -152.49871,69.597132 c 0,0 -1.55279,-1.78716 -1.12157,-2.834611 0.43124,-1.04744 0.38389,-1.81633 0.38389,-1.81633 0,0 0.90362,-5.578009 5.91893,-5.326509 3.45099,0.173058 6.06303,5.54918 6.06303,5.54918 -3.96139,-1.035831 -7.0192,1.988897 -6.24566,4.557636 z"
         style="display:inline;opacity:1;fill:url(#linearGradient401);fill-opacity:1;stroke:none;stroke-width:0.132447px;stroke-linecap:butt;stroke-linejoin:miter;stroke-opacity:1" />
      <path
         style="display:inline;opacity:1;fill:url(#linearGradient399);fill-opacity:1;stroke:none;stroke-width:0.132447px;stroke-linecap:butt;stroke-linejoin:miter;stroke-opacity:1"
         d="m -89.057429,69.875678 c 1.447282,-6.235642 -1.217678,-6.81954 -3.436239,-7.82134 -3.810561,-1.664401 -6.60079,2.176989 -6.60079,2.176989 -2.183062,-0.3106 -4.444042,2.070688 -4.444042,2.070688 0.93166,-0.243618 1.90333,-0.798213 2.83799,-0.554294 0.54027,0.140999 0.824861,0.209838 1.259662,0.369516 2.282399,0.83819 2.860759,2.17796 2.14013,3.712811 z"
         id="path295" />
      <path
         style="fill:url(#linearGradient397);fill-opacity:1;stroke:none;stroke-width:0.125939px;stroke-linecap:butt;stroke-linejoin:miter;stroke-opacity:1"
         d="m -131.71414,38.067751 c 0,0 0.47522,-8.45222 10.01848,-7.560509 9.54327,0.891709 5.55963,0.16847 10.24569,7.170149 0.25295,5.25566 -3.86353,5.83911 -9.63439,10.589491 -5.48276,-4.260521 -6.57742,-4.689081 -8.93535,-7.202891 -1.24852,-1.33105 -1.72408,-2.4114 -1.69443,-2.99624 z"
         id="path297" />
      <path
         id="path299"
         style="fill:#1a1a1a;stroke:none;stroke-width:0.206561;stroke-linecap:round;stroke-linejoin:round"
         d="m -119.77181,40.151691 c -0.0359,-5.02e-4 -0.0691,3.18e-4 -0.0991,0.003 -1.76976,0.12347 -3.71156,0.31159 -5.3306,0.61809 -0.18761,0.5017 -0.28386,1.03495 -0.28391,1.57282 -3e-5,2.40985 1.88762,3.3613 4.10526,3.90851 2.22838,-0.5211 4.3365,-1.49874 4.33646,-3.90851 -1e-5,-0.5449 -0.0988,-1.08499 -0.29114,-1.59231 -1.01789,-0.37381 -1.9716,-0.59459 -2.43701,-0.60104 z" />
      <path
         style="fill:#0042f4;fill-opacity:1;stroke:none;stroke-width:0.132447px;stroke-linecap:butt;stroke-linejoin:miter;stroke-opacity:1"
         d="m -119.01576,50.262052 c 0.16413,0.820489 -0.25332,3.01281 -0.25332,3.01281 0,0 0.0374,-1.59068 -0.4346,-4.023691 -0.47198,-2.43301 0.98672,-3.68253 0.98672,-3.68253 0.10189,0.002 -1.10873,2.04081 -0.2988,4.693411 z"
         id="path301" />
      <path
         id="path303"
         d="m -122.56792,49.641763 c -0.16413,0.820488 0.31707,2.664089 0.31707,2.664089 0,0 0.0521,-0.386971 0.52409,-2.819982 0.47196,-2.432999 -1.55888,-3.581259 -1.55888,-3.581259 -0.10188,0.002 1.52764,1.08455 0.71772,3.737152 z"
         style="fill:#0042f4;fill-opacity:1;stroke:none;stroke-width:0.132447px;stroke-linecap:butt;stroke-linejoin:miter;stroke-opacity:1" />
      <path
         d="m -119.46717,31.835061 c -0.0552,-9.52e-4 -0.10612,5.03e-4 -0.15211,0.005 -2.71719,0.24898 -5.69853,0.62831 -8.18432,1.24636 -0.28803,1.01165 -0.43582,2.08689 -0.43589,3.17149 -5e-5,4.8593 3.07579,7.69503 6.48062,8.79844 3.42134,-1.05075 6.48041,-3.93927 6.48035,-8.79844 -2e-5,-1.09877 -0.15163,-2.18783 -0.447,-3.21082 -1.56282,-0.75376 -3.0271,-1.19892 -3.74165,-1.21195 z"
         style="fill:url(#linearGradient395);fill-opacity:1;stroke:none;stroke-width:0.36345;stroke-linecap:round;stroke-linejoin:round"
         id="path305" />
      <path
         d="m -132.11816,39.204791 c 2.30207,-1.80997 7.75546,-2.78188 12.49888,-3.21651 1.27174,-0.11653 6.23294,1.73491 8.45595,4.45198 0.41178,-1.02091 0.61323,-2.05756 0.64051,-3.08586 -1.65897,-3.24354 -7.67194,-5.644949 -9.09646,-5.51442 -6.45046,0.59105 -14.21165,2.23279 -13.44256,5.75759 z"
         style="opacity:0.144876;fill:#000000;fill-opacity:0;stroke:none;stroke-width:0.132447px;stroke-linecap:butt;stroke-linejoin:miter;stroke-opacity:1"
         id="path307" />
      <path
         id="path309"
         d="m -111.44997,38.974821 c -1.27257,-3.40567 -7.02932,-5.97235 -8.35969,-5.83752 -5.83215,0.59106 -12.47322,2.08668 -11.77786,5.61149 -1.39636,-1.31539 5.40633,-16.85367 9.26858,-16.96995 6.15353,1.53366 10.88601,10.42778 10.86897,17.19598 z"
         style="opacity:1;fill:url(#linearGradient393);fill-opacity:1;stroke:none;stroke-width:0.12594px;stroke-linecap:butt;stroke-linejoin:miter;stroke-opacity:1" />
      <path
         id="path311"
         d="m -127.12648,32.296351 c 1.92958,-1.33385 5.03095,-1.84721 5.03095,-1.84721 -0.91769,-0.5586 1.33135,-1.2788 2.02454,-1.69439 0,0 -2.83921,0.50195 -3.60709,1.07228 -0.53177,0.39496 -3.4484,2.46932 -3.4484,2.46932 z"
         style="fill:url(#linearGradient391);fill-opacity:1;stroke:none;stroke-width:0.132447px;stroke-linecap:butt;stroke-linejoin:miter;stroke-opacity:1" />
      <path
         d="m -137.29197,52.179201 c -0.41598,0 -0.77878,0.692611 -0.7507,1.551861 l 0.51427,15.7372 h 31.9258 l 0.51452,-15.7372 c 0.0281,-0.85925 -0.33497,-1.551861 -0.75097,-1.551861 z"
         style="display:inline;fill:#000000;fill-opacity:1;stroke:none;stroke-width:0.36345;stroke-linecap:round;stroke-linejoin:round"
         id="path351" />
      <rect
         style="display:inline;fill:#000000;fill-opacity:1;stroke:none;stroke-width:0.337785;stroke-linecap:round;stroke-linejoin:round"
         id="rect353"
         width="89.404747"
         height="12.833188"
         x="-165.65475"
         y="69.436249" />
      <text
         transform="matrix(0.50058891,0,0,0.50058891,-162.75328,-5.3643903)"
         style="font-style:normal;font-weight:normal;font-size:19.7556px;line-height:1.25;font-family:sans-serif;white-space:pre;shape-inside:url(#rect367);display:inline;fill:#ffffff;fill-opacity:1;stroke:none;"
         id="text359"
         xml:space="preserve"><tspan
           x="-0.66601562"
           y="167.44941"><tspan
             style="font-style:normal;font-variant:normal;font-weight:normal;font-stretch:normal;font-size:19.7556px;font-family:monospace;-inkscape-font-specification:monospace">&lt;ChallengeMe/&gt;</tspan></tspan></text>
      <path
         d="m -123.11282,60.362513 c 0,0.0529 0.003,0.104939 0.007,0.156958 h -0.79816 c -0.11942,0 -0.22273,0.0922 -0.21557,0.206309 l 0.19887,3.169682 c 0.008,0.114049 0.0886,0.20629 0.19879,0.20629 h 4.31442 c 0.11013,0 0.19165,-0.0922 0.19881,-0.20629 l 0.19886,-3.169682 c 0.008,-0.114059 -0.0961,-0.206309 -0.21558,-0.206309 h -0.77673 c 0.005,-0.0532 0.001,-0.0874 0.001,-0.157048 0,-0.979271 -0.4984,-1.830732 -1.56316,-1.830732 -0.84282,0 -1.54814,0.79833 -1.54814,1.830822 z m 1.54777,-1.274303 c 0.56784,-0.0339 1.02267,0.812012 0.9336,1.274303 0,0.396028 0.0487,0.156958 0.003,0.156958 h -1.86113 c 0,0 -0.008,-0.10342 -0.008,-0.156958 0,-0.738532 0.41566,-1.274303 0.93263,-1.274303 z m 2.7e-4,2.313522 c 0.001,-1e-5 0.003,-1e-5 0.004,0 0.32285,0 0.58458,0.261729 0.58458,0.584579 -2e-5,0.19337 -0.0957,0.374189 -0.25547,0.48305 l 0.12497,0.871892 h -0.91729 l 0.12568,-0.877782 c -0.1549,-0.10954 -0.24701,-0.28743 -0.24707,-0.47716 0,-0.321329 0.25934,-0.582409 0.58065,-0.584579 z"
         style="display:inline;opacity:1;fill:#f2f2f2;stroke:none;stroke-width:0.155795;stroke-linecap:round;stroke-linejoin:round"
         id="path361" />
    </g>
  </g>
</svg>
