<svg width="222" height="43" viewBox="0 0 222 43" fill="none" xmlns="http://www.w3.org/2000/svg">
<path d="M0.671334 42.3173V0.507277H25.3133V42.3173H0.671334ZM22.3163 32.5863L22.9453 27.9613L20.6513 27.7393L19.9483 31.2913C18.5177 32.0066 16.754 32.3643 14.6573 32.3643C11.796 32.3643 9.52667 31.4639 7.84933 29.6633C6.19667 27.8379 5.37033 25.4329 5.37033 22.4483C5.37033 19.5376 6.172 17.1449 7.77533 15.2703C9.40333 13.3956 11.537 12.4583 14.1763 12.4583C15.533 12.4583 16.6677 12.6186 17.5803 12.9393C18.493 13.2353 19.344 13.6423 20.1333 14.1603L20.7993 17.6753L23.1303 17.4533L22.4643 12.8283C21.4777 11.9896 20.306 11.3113 18.9493 10.7933C17.6173 10.2753 15.9523 10.0163 13.9543 10.0163C11.611 10.0163 9.58833 10.5959 7.88633 11.7553C6.18433 12.9146 4.86467 14.4563 3.92733 16.3803C2.99 18.2796 2.52133 20.3393 2.52133 22.5593C2.52133 26.0619 3.60667 28.9849 5.77733 31.3283C7.948 33.6469 10.7847 34.8063 14.2873 34.8063C17.716 34.8063 20.3923 34.0663 22.3163 32.5863ZM25.7056 42.3173V0.507277H47.1656V42.3173H25.7056ZM38.1006 34.4363H46.4626V32.3273H43.6136V23.8913C43.6136 21.6959 43.0709 20.1049 41.9856 19.1183C40.9003 18.1316 39.5559 17.6383 37.9526 17.6383C35.3133 17.6383 33.3893 18.7359 32.1806 20.9313V8.98028H26.7046V11.0893H29.5536V32.3273H26.7046V34.4363H35.0296V32.3273H32.1806V24.5573C32.2299 23.3486 32.6986 22.2633 33.5866 21.3013C34.4993 20.3146 35.6709 19.8213 37.1016 19.8213C38.2363 19.8213 39.1613 20.1913 39.8766 20.9313C40.6166 21.6466 40.9866 22.8923 40.9866 24.6683V32.3273H38.1006V34.4363ZM47.5602 42.3173V0.507277H66.1712V42.3173H47.5602ZM50.9272 19.2293L50.3352 23.0403L52.4812 23.2993L53.1102 20.4503C54.0228 20.0063 55.0835 19.7843 56.2922 19.7843C57.7722 19.7843 58.7588 20.1543 59.2522 20.8943C59.7702 21.6343 60.0292 22.5963 60.0292 23.7803V25.2603C59.5852 25.2109 59.1042 25.1739 58.5862 25.1493C58.0928 25.1246 57.5995 25.1123 57.1062 25.1123C55.2562 25.1123 53.5048 25.4453 51.8522 26.1113C50.2242 26.7526 49.4102 28.1093 49.4102 30.1813C49.4102 31.9326 49.9652 33.1413 51.0752 33.8073C52.2098 34.4733 53.3198 34.8063 54.4052 34.8063C55.7372 34.8063 56.8718 34.4609 57.8092 33.7703C58.7712 33.0796 59.5112 32.2903 60.0292 31.4023V31.4763C60.0785 33.6963 61.0775 34.8063 63.0262 34.8063C63.7908 34.8063 64.5062 34.6213 65.1722 34.2513L65.1352 32.5493C64.8145 32.6973 64.4445 32.7713 64.0252 32.7713C63.0878 32.7713 62.6192 32.1793 62.6192 30.9953V23.1513C62.6192 19.4759 60.6582 17.6383 56.7362 17.6383C55.6508 17.6383 54.6272 17.7616 53.6652 18.0083C52.7032 18.2549 51.7905 18.6619 50.9272 19.2293ZM60.0292 28.2573C59.9305 29.6139 59.3755 30.6869 58.3642 31.4763C57.3775 32.2656 56.3168 32.6603 55.1822 32.6603C54.4668 32.6603 53.7762 32.4629 53.1102 32.0683C52.4442 31.6736 52.1112 30.9459 52.1112 29.8853C52.1112 28.6026 52.6045 27.7763 53.5912 27.4063C54.6025 27.0116 55.7248 26.8143 56.9582 26.8143C57.5008 26.8143 58.0312 26.8389 58.5492 26.8883C59.0672 26.9376 59.5605 26.9746 60.0292 26.9993V28.2573ZM66.5602 42.3173V0.507277H77.1422V42.3173H66.5602ZM67.6702 34.4363H76.0322V32.3273H73.1462V8.98028H67.6332V11.0893H70.5562V32.3273H67.6702V34.4363ZM77.5388 42.3173V0.507277H88.1208V42.3173H77.5388ZM78.6488 34.4363H87.0108V32.3273H84.1248V8.98028H78.6118V11.0893H81.5348V32.3273H78.6488V34.4363ZM88.5174 42.3173V0.507277H106.647V42.3173H88.5174ZM104.982 29.7003L102.799 29.2193C102.553 30.2306 102.059 31.0446 101.319 31.6613C100.579 32.2779 99.5558 32.5863 98.2484 32.5863C94.9184 32.5863 93.1794 30.6623 93.0314 26.8143H104.612C104.76 26.1483 104.834 25.4946 104.834 24.8533C104.81 22.9046 104.205 21.2149 103.021 19.7843C101.837 18.3536 100.111 17.6383 97.8414 17.6383C95.5228 17.6383 93.6851 18.4646 92.3284 20.1173C90.9718 21.7699 90.2934 23.8789 90.2934 26.4443C90.2934 29.1083 91.0088 31.1679 92.4394 32.6233C93.8701 34.0786 95.7448 34.8063 98.0634 34.8063C100.086 34.8063 101.689 34.3129 102.873 33.3263C104.057 32.3149 104.76 31.1063 104.982 29.7003ZM102.096 24.8903H93.0684C93.2411 23.5089 93.6851 22.3126 94.4004 21.3013C95.1158 20.2899 96.2381 19.7843 97.7674 19.7843C99.3708 19.7843 100.518 20.3269 101.208 21.4123C101.924 22.4976 102.22 23.6569 102.096 24.8903ZM107.048 42.3173V0.507277H129.026V42.3173H107.048ZM119.961 34.4363H128.286V32.3273H125.437V23.8913C125.437 21.6959 124.894 20.1049 123.809 19.1183C122.723 18.1316 121.379 17.6383 119.776 17.6383C117.112 17.6383 115.188 18.7236 114.004 20.8943V17.9713H108.454V20.0803H111.414V32.3273H108.528V34.4363H116.89V32.3273H114.004V24.6313C114.053 23.3733 114.522 22.2633 115.41 21.3013C116.322 20.3146 117.519 19.8213 118.999 19.8213C120.109 19.8213 121.021 20.1913 121.737 20.9313C122.452 21.6466 122.81 22.8923 122.81 24.6683V32.3273H119.961V34.4363ZM129.444 42.3173V0.507277H150.497V42.3173H139.064C141.531 42.2186 143.43 41.4046 144.762 39.8753C146.119 38.3706 146.797 36.3603 146.797 33.8443V20.0803H149.461V17.9713H144.17V20.5613C143.06 18.6126 141.198 17.6383 138.583 17.6383C136.043 17.6383 134.18 18.5879 132.996 20.4873C131.812 22.3866 131.22 24.4339 131.22 26.6293C131.22 29.2193 131.911 31.2049 133.292 32.5863C134.674 33.9676 136.339 34.6583 138.287 34.6583C139.841 34.6583 141.087 34.3006 142.024 33.5853C142.962 32.8699 143.677 32.0313 144.17 31.0693V33.7333C144.17 35.7806 143.665 37.3469 142.653 38.4323C141.667 39.5176 140.384 40.0603 138.805 40.0603C137.695 40.0603 136.622 39.7766 135.586 39.2093C134.55 38.6419 133.823 37.7169 133.403 36.4343L131.331 37.4703C131.751 39.0489 132.589 40.2329 133.847 41.0223C135.13 41.8116 136.573 42.2433 138.176 42.3173H129.444ZM144.17 24.4833V27.3323C144.121 28.5656 143.603 29.7249 142.616 30.8103C141.654 31.8709 140.396 32.4013 138.842 32.4013C137.486 32.4013 136.339 31.9203 135.401 30.9583C134.464 29.9716 133.995 28.4669 133.995 26.4443C133.995 24.7176 134.402 23.2006 135.216 21.8933C136.055 20.5613 137.412 19.8953 139.286 19.8953C140.618 19.8953 141.765 20.3146 142.727 21.1533C143.689 21.9919 144.17 23.1019 144.17 24.4833ZM150.901 42.3173V0.507277H169.031V42.3173H150.901ZM167.366 29.7003L165.183 29.2193C164.937 30.2306 164.443 31.0446 163.703 31.6613C162.963 32.2779 161.94 32.5863 160.632 32.5863C157.302 32.5863 155.563 30.6623 155.415 26.8143H166.996C167.144 26.1483 167.218 25.4946 167.218 24.8533C167.194 22.9046 166.589 21.2149 165.405 19.7843C164.221 18.3536 162.495 17.6383 160.225 17.6383C157.907 17.6383 156.069 18.4646 154.712 20.1173C153.356 21.7699 152.677 23.8789 152.677 26.4443C152.677 29.1083 153.393 31.1679 154.823 32.6233C156.254 34.0786 158.129 34.8063 160.447 34.8063C162.47 34.8063 164.073 34.3129 165.257 33.3263C166.441 32.3149 167.144 31.1063 167.366 29.7003ZM164.48 24.8903H155.452C155.625 23.5089 156.069 22.3126 156.784 21.3013C157.5 20.2899 158.622 19.7843 160.151 19.7843C161.755 19.7843 162.902 20.3269 163.592 21.4123C164.308 22.4976 164.604 23.6569 164.48 24.8903ZM169.432 42.3173V0.507277H202.769V42.3173H169.432ZM197.811 12.7543H200.956V10.3863H195.406L186.304 29.2193H186.156L176.795 10.3863H171.282V12.7543H174.427V32.0683H171.393V34.4363H179.903V32.0683H177.017V16.6393H177.165L185.416 33.2153H186.859L194.925 16.7503H195.073V32.0683H192.261V34.4363H200.808V32.0683H197.811V12.7543ZM203.174 42.3173V0.507277H221.304V42.3173H203.174ZM219.639 29.7003L217.456 29.2193C217.209 30.2306 216.716 31.0446 215.976 31.6613C215.236 32.2779 214.212 32.5863 212.905 32.5863C209.575 32.5863 207.836 30.6623 207.688 26.8143H219.269C219.417 26.1483 219.491 25.4946 219.491 24.8533C219.466 22.9046 218.862 21.2149 217.678 19.7843C216.494 18.3536 214.767 17.6383 212.498 17.6383C210.179 17.6383 208.342 18.4646 206.985 20.1173C205.628 21.7699 204.95 23.8789 204.95 26.4443C204.95 29.1083 205.665 31.1679 207.096 32.6233C208.527 34.0786 210.401 34.8063 212.72 34.8063C214.743 34.8063 216.346 34.3129 217.53 33.3263C218.714 32.3149 219.417 31.1063 219.639 29.7003ZM216.753 24.8903H207.725C207.898 23.5089 208.342 22.3126 209.057 21.3013C209.772 20.2899 210.895 19.7843 212.424 19.7843C214.027 19.7843 215.174 20.3269 215.865 21.4123C216.58 22.4976 216.876 23.6569 216.753 24.8903Z" fill="white"/>
</svg>
