<svg width="1980" height="10000" viewBox="0 0 1980 10000" fill="none" xmlns="http://www.w3.org/2000/svg">
<g clip-path="url(#clip0)">
<rect width="1980" height="10000" fill="url(#paint0_linear)"/>
<path d="M663.156 2111.64C300.403 2070.44 57.902 2358.28 5.62101 2507.96C5.62101 2866.66 -7.02614 3493.17 5.62082 3626.78C34.3041 3929.8 181.903 4274.55 574.055 4302.83C948.51 4329.84 1115.73 4426.84 1391.23 4620.86C1666.72 4814.88 1643.95 4873.66 1924.36 4931.89C2234.99 4996.39 2288.08 5193.91 2452.25 5270.92C2583.58 5332.52 3411.01 4808.71 3458 5064.9L2970.38 448C2957.36 492.837 2495.32 1100.56 2397.94 1186.06C2299.86 1272.18 2138.61 1307.04 1951.82 1401.08C1589.31 1583.6 1612.87 1618.15 1465.68 1740.11C1217.65 1945.63 1116.6 2163.15 663.156 2111.64Z" fill="white" stroke="black"/>
</g>
<defs>
<linearGradient id="paint0_linear" x1="201.5" y1="357.5" x2="8226" y2="11019.5" gradientUnits="userSpaceOnUse">
<stop stop-color="#1E3D5B"/>
<stop offset="1" stop-color="#1E3D5B" stop-opacity="0"/>
</linearGradient>
<clipPath id="clip0">
<rect width="1980" height="10000" fill="white"/>
</clipPath>
</defs>
</svg>
