<svg width="1980" height="4830" viewBox="0 0 1980 4830" fill="none" xmlns="http://www.w3.org/2000/svg">
<path d="M663.156 1664.64C300.403 1623.44 57.902 1911.28 5.62101 2060.96C5.62101 2419.66 -7.02614 3046.17 5.62082 3179.78C34.3041 3482.8 181.903 3827.55 574.055 3855.83C948.51 3882.84 1115.73 3979.84 1391.23 4173.86C1666.72 4367.88 1643.95 4426.66 1924.36 4484.89C2234.99 4549.39 2288.08 4746.91 2452.25 4823.92C2583.58 4885.52 3411.01 4361.71 3458 4617.9L2970.38 1C2957.36 45.8372 2495.32 653.557 2397.94 739.064C2299.86 825.175 2138.61 860.038 1951.82 954.083C1589.31 1136.6 1612.87 1171.15 1465.68 1293.11C1217.65 1498.63 1116.6 1716.15 663.156 1664.64Z" fill="white" stroke="black"/>
</svg>
